<svg xmlns="http://www.w3.org/2000/svg" width="192" height="192" viewBox="0 0 192 192">
  <rect width="192" height="192" rx="42" fill="#000000" />
  <g fill="#ffffff">
    <circle cx="96" cy="96" r="50" />
    <circle cx="96" cy="96" r="23" fill="#000000" />
    <rect x="92" y="24" width="8" height="34" rx="4" />
    <rect x="92" y="134" width="8" height="34" rx="4" />
    <rect x="24" y="92" width="34" height="8" rx="4" />
    <rect x="134" y="92" width="34" height="8" rx="4" />
    <rect x="43.8" y="43.8" width="8" height="26" rx="4" transform="rotate(-45 47.8 56.8)" />
    <rect x="140.2" y="122.2" width="8" height="26" rx="4" transform="rotate(-45 144.2 135.2)" />
    <rect x="122.2" y="43.8" width="8" height="26" rx="4" transform="rotate(45 126.2 56.8)" />
    <rect x="43.8" y="122.2" width="8" height="26" rx="4" transform="rotate(45 47.8 135.2)" />
  </g>
</svg>
